<svg width="28" height="22" viewBox="0 0 28 22" fill="none" xmlns="http://www.w3.org/2000/svg">
<path d="M18.75 17.375L17.3125 11.9375L21.6875 8.3125L16.0625 8L14 2.75L11.9375 8L6.25 8.3125L10.6875 11.9375L9.25 17.375L14 14.3125L18.75 17.375ZM25.4375 9.125C24.9375 9.66667 24.6875 10.2917 24.6875 11C24.6875 11.7083 24.9375 12.3333 25.4375 12.875C25.9792 13.4167 26.6042 13.6875 27.3125 13.6875V19C27.3125 19.7083 27.0417 20.3333 26.5 20.875C26 21.4167 25.3958 21.6875 24.6875 21.6875H3.3125C2.60417 21.6875 1.97917 21.4167 1.4375 20.875C0.9375 20.3333 0.6875 19.7083 0.6875 19V13.6875C1.4375 13.6875 2.0625 13.4375 2.5625 12.9375C3.0625 12.3958 3.3125 11.75 3.3125 11C3.3125 10.2917 3.04167 9.66667 2.5 9.125C2 8.58333 1.39583 8.3125 0.6875 8.3125V3C0.6875 2.29167 0.9375 1.66667 1.4375 1.125C1.97917 0.583333 2.60417 0.3125 3.3125 0.3125H24.6875C25.3958 0.3125 26 0.583333 26.5 1.125C27.0417 1.66667 27.3125 2.29167 27.3125 3V8.3125C26.6042 8.3125 25.9792 8.58333 25.4375 9.125Z" fill="white"/>
</svg>
