<svg width="33" height="32" viewBox="-5 -5 42 42" fill="none" xmlns="http://www.w3.org/2000/svg">
<path d="M16.4041 0.00102524C7.34185 0.00102524 0 7.34903 0 16.4051C0 23.6567 4.69977 29.8031 11.2132 31.9716C12.0365 32.1264 12.3338 31.6189 12.3338 31.1801C12.3338 30.7905 12.3246 29.7601 12.3184 28.3924C7.75298 29.3807 6.79129 26.1871 6.79129 26.1871C6.04388 24.2965 4.96531 23.789 4.96531 23.789C3.48074 22.775 5.08322 22.7966 5.08322 22.7966C6.72773 22.9083 7.59304 24.4831 7.59304 24.4831C9.05608 26.9929 11.4316 26.267 12.3718 25.8446C12.5153 24.7876 12.9428 24.0607 13.4083 23.6557C9.76658 23.2446 5.93725 21.8349 5.93725 15.549C5.93725 13.7538 6.57291 12.2918 7.6238 11.1435C7.44233 10.7324 6.88664 9.06121 7.76836 6.80154C7.76836 6.80154 9.14118 6.36376 12.2795 8.48399C13.5928 8.12002 14.9872 7.93855 16.3805 7.92932C17.7749 7.93855 19.1682 8.12105 20.4815 8.48399C23.6014 6.36376 24.9732 6.80154 24.9732 6.80154C25.8539 9.06121 25.2982 10.7313 25.1382 11.1435C26.1789 12.2918 26.8145 13.7548 26.8145 15.549C26.8145 21.8492 22.9801 23.2384 19.3343 23.6393C19.9043 24.1304 20.4385 25.1403 20.4385 26.673C20.4385 28.8671 20.418 30.6346 20.418 31.1688C20.418 31.5953 20.705 32.1079 21.5498 31.9429C28.1115 29.797 32.8061 23.6455 32.8061 16.4041C32.8061 7.348 25.4643 0 16.402 0L16.4041 0.00102524Z" fill="white"/>
</svg>
