<svg width="32" height="32" viewBox="-5 -5 42 42" fill="none" xmlns="http://www.w3.org/2000/svg">
<path d="M16 0C11.6505 0 11.1084 0.0210026 9.40618 0.0930116C7.69696 0.177022 6.54082 0.442055 5.52069 0.838105C4.46856 1.25016 3.57245 1.79722 2.68734 2.68734C1.79622 3.57245 1.24416 4.46856 0.838105 5.52069C0.442055 6.54082 0.177022 7.69696 0.0930116 9.40618C0.016002 11.1094 0 11.6505 0 16C0 20.3495 0.0210026 20.8916 0.0930116 22.5938C0.177022 24.298 0.442055 25.4592 0.838105 26.4793C1.25016 27.5314 1.79722 28.4276 2.68734 29.3127C3.57245 30.2038 4.46856 30.7558 5.52069 31.1619C6.54082 31.5529 7.70196 31.823 9.40618 31.907C11.1094 31.984 11.6505 32 16 32C20.3495 32 20.8916 31.979 22.5938 31.907C24.298 31.823 25.4592 31.5519 26.4793 31.1619C27.5314 30.7498 28.4276 30.2028 29.3127 29.3127C30.2038 28.4276 30.7558 27.5364 31.1619 26.4793C31.5529 25.4592 31.823 24.298 31.907 22.5938C31.984 20.8906 32 20.3495 32 16C32 11.6505 31.979 11.1084 31.907 9.40618C31.823 7.70196 31.5519 6.53482 31.1619 5.52069C30.7498 4.46856 30.2028 3.57245 29.3127 2.68734C28.4276 1.79622 27.5364 1.24416 26.4793 0.838105C25.4592 0.442055 24.298 0.177022 22.5938 0.0930116C20.8906 0.016002 20.3495 0 16 0ZM16 2.88036C20.2715 2.88036 20.7816 2.90136 22.4698 2.97337C24.027 3.04638 24.8751 3.30641 25.4382 3.52644C26.1893 3.81748 26.7143 4.16152 27.2824 4.72359C27.8395 5.28066 28.1835 5.81173 28.4746 6.56282C28.6946 7.12589 28.9546 7.974 29.0276 9.53119C29.0996 11.2194 29.1206 11.7305 29.1206 16.001C29.1206 20.2715 29.0996 20.7826 29.0216 22.4708C28.9376 24.028 28.6776 24.8761 28.4586 25.4392C28.1555 26.1903 27.8175 26.7153 27.2594 27.2834C26.6963 27.8405 26.1603 28.1845 25.4152 28.4756C24.8591 28.6956 23.999 28.9556 22.4358 29.0286C20.7386 29.1006 20.2385 29.1216 15.956 29.1216C11.6735 29.1216 11.1744 29.1006 9.47518 29.0226C7.91799 28.9386 7.05888 28.6786 6.49581 28.4596C5.73572 28.1565 5.21465 27.8185 4.65658 27.2604C4.09351 26.6973 3.73547 26.1613 3.45943 25.4162C3.2354 24.8601 2.97937 24 2.89636 22.4368C2.83935 20.7596 2.81235 20.2395 2.81235 15.977C2.81235 11.7165 2.83935 11.1954 2.89636 9.49719C2.97937 7.93399 3.2354 7.07588 3.45943 6.51782C3.73547 5.75672 4.09451 5.23665 4.65658 4.67358C5.21365 4.11651 5.73572 3.75647 6.49581 3.47443C7.05888 3.25541 7.89699 2.99537 9.46018 2.91736C11.1574 2.85636 11.6575 2.83435 15.934 2.83435L16 2.88036ZM16 7.78797C11.4584 7.78797 7.78597 11.4654 7.78597 16.002C7.78597 20.5436 11.4634 24.216 16 24.216C20.5416 24.216 24.214 20.5386 24.214 16.002C24.214 11.4604 20.5366 7.78797 16 7.78797ZM16 21.3357C13.0516 21.3357 10.6663 18.9504 10.6663 16.002C10.6663 13.0536 13.0516 10.6683 16 10.6683C18.9484 10.6683 21.3337 13.0536 21.3337 16.002C21.3337 18.9504 18.9484 21.3357 16 21.3357ZM26.4653 7.45993C26.4653 8.52307 25.6002 9.38117 24.5421 9.38117C23.4789 9.38117 22.6208 8.52207 22.6208 7.45993C22.6208 6.4028 23.4849 5.54269 24.5421 5.54269C25.5992 5.54269 26.4653 6.4028 26.4653 7.45993Z" fill="white"/>
</svg>
