<svg width="32" height="32" viewBox="-5 -5 42 42" fill="none" xmlns="http://www.w3.org/2000/svg">
<path d="M7.16368 32.0011H0.529162V10.6358H7.16368V32.0011ZM3.84242 7.72142C1.7212 7.72142 0 5.96364 0 3.84242C0 1.7212 1.72006 0 3.84242 0C5.96478 0 7.68485 1.72006 7.68485 3.84242C7.68485 5.96364 5.96364 7.72142 3.84242 7.72142ZM31.9943 32.0011H25.3746V21.6008C25.3746 19.1218 25.3243 15.9434 21.9254 15.9434C18.4761 15.9434 17.9469 18.6361 17.9469 21.4225V32.0011H11.3193V10.6358H17.6818V13.5502H17.7743C18.6601 11.8713 20.8236 10.0998 24.0511 10.0998C30.7657 10.0998 32 14.5217 32 20.2647V32.0011H31.9943Z" fill="white"/>
</svg>
