<svg xmlns="http://www.w3.org/2000/svg" version="1.1" viewBox="487 227 34 34">
<g><path style="opacity:1" fill="#104489" d="M 487.5,226.5 C 498.505,226.333 509.505,226.5 520.5,227C 521.833,238.333 521.833,249.667 520.5,261C 509.091,261.81 497.757,261.643 486.5,260.5C 486.189,249.086 486.523,237.752 487.5,226.5 Z"/></g>
<g>
<path style="opacity:1" fill="#d9e3ee" d="M 498.5,228.5 C 500.384,228.712 501.717,229.712 502.5,231.5C 500.771,233.851 500.104,236.518 500.5,239.5C 502.833,239.5 505.167,239.5 507.5,239.5C 507.5,240.5 507.5,241.5 507.5,242.5C 505.143,242.337 502.81,242.503 500.5,243C 503.5,243.333 506.5,243.667 509.5,244C 510.505,248.168 512.839,251.335 516.5,253.5C 515.032,255.333 513.365,255.666 511.5,254.5C 510.11,247.441 505.776,244.774 498.5,246.5C 498.839,241.633 497.672,241.299 495,245.5C 492.781,253.271 495.614,256.771 503.5,256C 505.815,254.891 507.315,253.057 508,250.5C 510.051,252.809 509.884,254.976 507.5,257C 500.649,261.353 495.482,259.853 492,252.5C 490.312,247.213 491.812,243.213 496.5,240.5C 497.227,236.459 497.894,232.459 498.5,228.5 Z"/>
</g>
</svg>