<svg width="32" height="32" viewBox="-5 -5 42 42" fill="none" xmlns="http://www.w3.org/2000/svg">
<path d="M39.2944 3.81269C37.8464 4.44752 36.2962 4.88428 34.6624 5.08235C36.3294 4.08212 37.604 2.49996 38.2118 0.615148C36.6481 1.52557 34.9183 2.18501 33.079 2.55779C31.6125 0.987928 29.516 0 27.1895 0C22.7297 0 19.1151 3.61338 19.1151 8.06705C19.1151 8.70803 19.1926 9.32318 19.3267 9.90634C12.6179 9.59262 6.67067 6.36924 2.69312 1.49973C1.99431 2.68574 1.59692 4.06367 1.59692 5.5634C1.59692 8.3697 3.0253 10.8303 5.18447 12.2771C3.86436 12.239 2.62176 11.8736 1.53295 11.272V11.3692C1.53295 15.2827 4.31342 18.5455 8.00431 19.2886C7.33133 19.467 6.61284 19.5703 5.88328 19.5703C5.36532 19.5703 4.87074 19.5199 4.37739 19.4288C5.41576 22.6325 8.38816 24.9652 11.9314 25.0353C9.17678 27.1945 5.6852 28.4814 1.92295 28.4814C1.28197 28.4814 0.642215 28.4506 0 28.3731C3.58877 30.6614 7.82468 32 12.4002 32C27.2461 32 35.3587 19.7032 35.3587 9.05375C35.3587 8.71419 35.3587 8.36847 35.3329 8.02153C36.9163 6.89335 38.2868 5.46374 39.3695 3.84344L39.2944 3.81269Z" fill="white"/>
</svg>
