<svg width="32" height="32" viewBox="-5 -5 42 42" fill="none" xmlns="http://www.w3.org/2000/svg">
<path d="M23.328 19.177C22.927 18.974 20.974 18.021 20.609 17.885C20.244 17.755 19.979 17.687 19.713 18.088C19.453 18.479 18.687 19.374 18.453 19.635C18.219 19.896 17.989 19.916 17.594 19.739C17.193 19.536 15.912 19.119 14.391 17.755C13.203 16.698 12.412 15.396 12.177 14.995C11.943 14.599 12.151 14.375 12.349 14.177C12.531 13.995 12.75 13.719 12.953 13.479C13.146 13.239 13.208 13.078 13.349 12.818C13.479 12.537 13.412 12.318 13.313 12.12C13.214 11.922 12.417 9.959 12.084 9.177C11.766 8.401 11.433 8.5 11.188 8.5C10.959 8.479 10.693 8.479 10.428 8.479C10.163 8.479 9.73 8.578 9.365 8.958C9 9.359 7.969 10.317 7.969 12.255C7.969 14.198 9.396 16.078 9.594 16.359C9.797 16.619 12.401 20.619 16.396 22.338C17.349 22.739 18.089 22.979 18.667 23.177C19.62 23.479 20.49 23.437 21.177 23.338C21.937 23.213 23.531 22.374 23.865 21.437C24.204 20.494 24.204 19.713 24.105 19.536C24.006 19.354 23.746 19.255 23.345 19.078L23.328 19.177ZM16.083 29H16.062C13.697 29 11.359 28.359 9.317 27.161L8.838 26.875L3.838 28.177L5.182 23.312L4.859 22.812C3.541 20.713 2.838 18.291 2.838 15.802C2.838 8.542 8.781 2.62 16.093 2.62C19.635 2.62 22.958 4 25.458 6.5C27.958 8.979 29.338 12.302 29.338 15.823C29.328 23.078 23.39 29 16.088 29H16.083ZM27.359 4.599C24.317 1.661 20.317 0 16.062 0C7.286 0 0.14 7.115 0.135 15.859C0.135 18.651 0.864 21.375 2.26 23.786L0 32L8.448 29.797C10.776 31.052 13.396 31.724 16.063 31.729H16.068C24.849 31.729 31.995 24.614 32 15.864C32 11.63 30.349 7.645 27.339 4.65L27.359 4.599Z" fill="white"/>
</svg>
